<?xml version="1.0" encoding="UTF-8" ?>
<!DOCTYPE svg PUBLIC "-//W3C//DTD SVG 1.1//EN" "http://www.w3.org/Graphics/SVG/1.1/DTD/svg11.dtd">
<svg width="85pt" height="84pt" viewBox="0 0 85 84" version="1.1" xmlns="http://www.w3.org/2000/svg">
<g id="#ef7f1aff">
<path fill="#ef7f1a" opacity="1.00" d=" M 29.51 2.37 C 38.35 -0.52 48.16 -0.34 56.88 2.90 C 69.83 7.58 80.08 19.05 83.21 32.47 C 86.48 45.25 82.96 59.42 74.39 69.40 C 67.37 77.70 57.02 83.20 46.14 84.00 L 38.94 84.00 C 23.79 83.05 9.83 72.82 3.92 58.90 C -0.65 48.53 -0.65 36.27 3.82 25.86 C 8.49 14.84 18.09 6.00 29.51 2.37 M 35.25 8.24 C 27.48 9.88 20.34 14.27 15.38 20.46 C 5.72 32.01 5.07 49.90 13.89 62.11 C 22.96 75.67 42.15 81.05 56.87 73.87 C 72.86 66.98 81.46 47.04 75.22 30.72 C 69.86 14.68 51.78 4.38 35.25 8.24 Z" />
<path fill="#ef7f1a" opacity="1.00" d=" M 62.80 28.76 C 64.12 27.61 65.87 26.43 67.67 27.34 C 70.12 28.15 70.64 31.87 68.53 33.35 C 58.38 41.59 48.16 49.76 37.97 57.96 C 36.50 59.29 34.28 59.80 32.85 58.11 C 28.22 53.40 23.81 48.46 19.24 43.68 C 18.08 42.34 16.34 41.00 16.78 38.98 C 17.20 36.27 21.00 35.02 22.88 37.06 C 27.20 41.54 31.38 46.17 35.64 50.71 C 44.61 43.30 53.77 36.11 62.80 28.76 Z" />
</g>
</svg>
